<?xml version="1.0" encoding="UTF-8" standalone="no"?>
<!-- Created with Inkscape (http://www.inkscape.org/) -->

<svg
   width="200"
   height="150"
   viewBox="0 0 52.917 39.6875"
   version="1.1"
   id="svg1"
   inkscape:version="1.4.3 (0d15f75, 2025-12-25)"
   sodipodi:docname="Mjo_v2.svg"
   xmlns:inkscape="http://www.inkscape.org/namespaces/inkscape"
   xmlns:sodipodi="http://sodipodi.sourceforge.net/DTD/sodipodi-0.dtd"
   xmlns="http://www.w3.org/2000/svg"
   xmlns:svg="http://www.w3.org/2000/svg">
  <sodipodi:namedview
     id="namedview1"
     pagecolor="#ffffff"
     bordercolor="#000000"
     borderopacity="0.25"
     inkscape:showpageshadow="2"
     inkscape:pageopacity="0.0"
     inkscape:pagecheckerboard="0"
     inkscape:deskcolor="#d1d1d1"
     inkscape:document-units="mm"
     inkscape:zoom="2.1309203"
     inkscape:cx="176.68422"
     inkscape:cy="128.11366"
     inkscape:window-width="1368"
     inkscape:window-height="842"
     inkscape:window-x="-6"
     inkscape:window-y="-6"
     inkscape:window-maximized="1"
     inkscape:current-layer="layer1" />
  <defs
     id="defs1" />
  <g
     inkscape:label="Layer 1"
     inkscape:groupmode="layer"
     id="layer1"
     transform="matrix(1.4488481,0,0,1.1031438,-6.1751484,-6.3582392)">
    <path
       style="fill:#000000;stroke-width:0.100001;stroke-dasharray:none"
       id="path5"
       d="m 12.487797,18.854377 c 0.05298,0.240057 3.71e-4,0.494901 -0.0197,0.738316 -0.06002,0.327281 -0.142513,0.650779 -0.193292,0.979486 -0.06028,0.3799 -0.07231,0.763481 -0.142326,1.141719 -0.03054,0.295104 -0.103923,0.578306 -0.17128,0.865913 -0.102574,0.215522 -0.162275,0.434703 -0.188323,0.671193 -0.07599,0.227435 -0.08512,0.469118 -0.145924,0.699511 -0.05751,0.227544 -0.12071,0.450893 -0.182064,0.67778 -0.03963,0.224241 -0.142477,0.428287 -0.212352,0.643624 -0.112156,0.165589 -0.190713,0.359215 -0.228102,0.555545 -0.06732,0.06453 -0.05719,0.169084 -0.09717,0.244252 -0.01045,0.01965 -0.0381,0.02591 -0.0491,0.04526 -0.03489,0.06137 -0.04691,0.133179 -0.07206,0.199139 -0.01585,0.02732 -0.03509,0.05293 -0.04754,0.08195 -0.0166,0.03871 -0.02345,0.08107 -0.03914,0.120162 -0.07836,0.195301 -0.200738,0.374491 -0.304905,0.556298 -0.14545,0.273192 -0.368444,0.490181 -0.5481419,0.738076 -0.1972663,0.290483 -0.4126713,0.568043 -0.6044608,0.86241 -0.1396839,0.171239 -0.3878517,0.291588 -0.5218063,0.463494 -0.044653,0.0573 -0.074555,0.124707 -0.1118327,0.187062 -0.2108414,0.329128 -0.4742898,0.610297 -0.7365806,0.896864 -0.2635131,0.190287 -0.4839831,0.440005 -0.7136585,0.670582 -0.1668759,0.20481 -0.3844245,0.357621 -0.5503397,0.560995 -0.1382859,0.224987 0.00645,-0.05481 -0.2071476,0.01299 -0.061289,0.05108 -0.085595,0.11651 -0.1117802,0.188046 0,0 2.726088,1.554331 2.726088,1.554331 v 0 c 0.054306,-0.07611 0.1082756,-0.1204 0.1767169,-0.181701 0.2129004,-0.259717 0.3667396,-0.548459 0.5016335,-0.854501 0.1472919,-0.277055 0.3064993,-0.539738 0.5479549,-0.747278 0.246494,-0.247192 0.506685,-0.490761 0.687995,-0.791514 0.251594,-0.299624 0.453852,-0.636584 0.657622,-0.969871 0.24816,-0.469263 0.386085,-0.979795 0.574539,-1.472275 0.174198,-0.282276 0.356165,-0.560349 0.544574,-0.833324 0.17813,-0.24132 0.341618,-0.492263 0.457162,-0.770702 0.110382,-0.257599 0.221423,-0.514488 0.317073,-0.77797 0.06806,-0.197332 0.125717,-0.394864 0.182752,-0.595519 0.06323,-0.202577 0.164789,-0.393776 0.189276,-0.605811 0.08177,-0.241545 0.12428,-0.489928 0.194333,-0.735209 0.06138,-0.226878 0.11059,-0.457362 0.165127,-0.685946 0.04451,-0.240412 0.08138,-0.481681 0.141275,-0.719196 0.03974,-0.218536 0.116852,-0.427084 0.158313,-0.645453 0.05024,-0.286938 0.08318,-0.575008 0.111843,-0.864845 0.03747,-0.374085 0.04608,-0.750461 0.104682,-1.122143 0.06419,-0.332002 0.123942,-0.66534 0.160828,-1.001655 0.0052,-0.262768 0.01615,-0.527845 -0.03043,-0.787901 z" />
    <path
       style="fill:#000000;stroke-width:0.100001;stroke-dasharray:none"
       id="path6"
       d="m 12.113669,19.981996 c 0.01037,0.192065 -0.0011,0.383161 -0.01662,0.57433 -0.0237,0.116446 0.01957,0.215888 0.07067,0.319012 0.0324,0.06055 0.03063,0.125775 0.0323,0.191362 0.0019,0.128833 0.0042,0.254839 0.03515,0.380225 0.05353,0.244178 0.136852,0.479187 0.225377,0.712628 0.07542,0.24828 0.206659,0.473512 0.316451,0.707094 0.08639,0.292655 0.183541,0.583816 0.313784,0.860062 0.114071,0.239964 0.222377,0.482245 0.327787,0.726242 0.143282,0.261078 0.204671,0.556683 0.355273,0.812987 0.104398,0.280458 0.22842,0.551742 0.342265,0.828585 0.09202,0.261146 0.215988,0.51094 0.335456,0.760677 0.05984,0.189363 0.174755,0.352374 0.217129,0.546286 0.05185,0.232499 0.181225,0.433141 0.269768,0.649956 0.08447,0.188083 0.190274,0.363473 0.294418,0.540547 0.04935,0.07443 0.06981,0.180886 0.13246,0.246574 0.01112,0.01167 0.0322,-0.0033 0.04829,-0.0024 0.01017,0.0039 0.02035,0.0079 0.03052,0.0118 0.01471,-0.01937 0.01999,-0.06112 0.04411,-0.0581 0.0272,0.0034 0.02511,0.04977 0.04446,0.06919 0.05395,0.05419 0.04726,-0.03053 0.09211,0.0535 0.01126,-0.0048 0.02337,-0.02074 0.03379,-0.01431 0.03217,0.01976 0.07213,0.119883 0.09576,0.15724 0.0069,-0.02331 0.01302,-0.04689 0.02068,-0.06996 0.03528,-0.106286 0.01005,-0.0091 0.05539,0.0047 0.222501,0.06773 0.45011,0.11737 0.675165,0.176052 0,0 1.508355,0.32164 1.508355,0.32164 v 0 c 0.704237,0.109102 0.696222,0.278622 0.706939,-0.197716 -0.09773,0.0092 -0.157324,-0.04534 -0.17013,-0.142476 -0.03851,-0.09372 -0.05269,-0.194783 -0.102022,-0.284339 -0.01243,-0.02257 -0.0375,-0.03771 -0.0462,-0.06195 -0.03564,-0.09929 -0.03523,-0.209684 -0.08523,-0.3048 -0.05003,-0.156179 -0.132619,-0.275755 -0.222869,-0.41072 -0.01491,-0.02697 -0.02982,-0.05394 -0.04473,-0.0809 -0.01749,-0.0222 -0.03793,-0.04237 -0.05248,-0.06659 -0.08566,-0.142585 -0.122748,-0.311094 -0.227981,-0.443389 -0.102963,-0.230583 -0.191582,-0.465905 -0.280907,-0.701278 -0.09076,-0.253287 -0.194457,-0.501866 -0.306444,-0.746129 -0.125911,-0.253341 -0.24792,-0.508704 -0.36634,-0.76575 -0.143374,-0.297359 -0.25891,-0.604861 -0.386024,-0.909208 -0.143039,-0.31795 -0.312133,-0.621129 -0.462105,-0.935873 -0.139664,-0.296055 -0.294286,-0.585078 -0.44761,-0.873809 -0.133972,-0.301817 -0.261718,-0.604872 -0.386837,-0.910551 -0.112464,-0.223026 -0.240216,-0.438548 -0.333029,-0.670976 -0.083,-0.221981 -0.165235,-0.443332 -0.184227,-0.682199 -0.01053,-0.123438 0.01033,-0.247529 -0.0044,-0.371106 -0.01607,-0.09714 -0.05989,-0.183033 -0.09537,-0.27421 -0.03739,-0.06275 -0.0424,-0.114532 -0.04179,-0.189267 -0.01638,-0.186038 -0.02678,-0.372016 -0.01662,-0.55906 z" />
    <path
       style="fill:#000000;stroke-width:0.100001;stroke-dasharray:none"
       id="path7"
       d="m 17.507711,28.842559 c 0.234583,-0.237045 0.444048,-0.497759 0.632356,-0.775298 0.171339,-0.224921 0.399705,-0.398579 0.569135,-0.623719 0.181551,-0.241193 0.440097,-0.405628 0.61492,-0.651946 0.161416,-0.193258 0.358574,-0.351686 0.514251,-0.549564 0.185867,-0.137885 0.311702,-0.334522 0.463769,-0.506478 0.181801,-0.187703 0.322579,-0.407591 0.489955,-0.607799 0.09857,-0.142483 0.248203,-0.246116 0.352299,-0.382703 0.200121,-0.262584 -0.02951,-0.02584 0.162733,-0.212863 0.179389,-0.171103 0.330788,-0.362985 0.509593,-0.533976 0.146015,-0.2076 0.368629,-0.339412 0.549116,-0.51119 0.155999,-0.170249 0.336272,-0.307613 0.494059,-0.474495 0.201115,-0.136436 0.319194,-0.347587 0.447896,-0.545699 0.169717,-0.145861 0.285188,-0.338103 0.426486,-0.509394 0.143808,-0.08341 0.237296,-0.217727 0.345415,-0.343781 0.0201,-0.02286 0.044,-0.04287 0.0603,-0.06858 0.02091,-0.03298 0.02895,-0.07311 0.05029,-0.105826 0.05686,-0.08717 0.156782,-0.161266 0.229556,-0.235865 0.08712,-0.08402 0.171484,-0.170689 0.260365,-0.252884 0.05377,-0.05833 0.111794,-0.112582 0.170745,-0.16561 0.09478,-0.111304 0.132058,-0.113684 -0.08274,-0.07427 0,0 -2.39581,0.588039 -2.39581,0.588039 v 0 c -0.144431,0.04312 -0.235596,0.06746 -0.333163,0.176037 -0.05019,0.05673 -0.102637,0.111543 -0.158318,0.162926 -0.07856,0.08587 -0.162299,0.166603 -0.239942,0.253311 -0.07118,0.07474 -0.139117,0.184415 -0.221926,0.244496 -0.01881,0.01364 -0.04688,0.0097 -0.06565,0.02344 -0.02594,0.01893 -0.04301,0.04769 -0.06451,0.07154 -0.110665,0.122858 -0.248074,0.218789 -0.337629,0.359382 -0.131362,0.180049 -0.291022,0.334613 -0.42644,0.51103 -0.197768,0.213041 0.05539,-0.04062 -0.15817,0.118267 -0.116219,0.08647 -0.19894,0.224845 -0.317766,0.310142 -0.154781,0.151998 -0.314718,0.299701 -0.472169,0.449069 -0.197487,0.159573 -0.373806,0.340836 -0.543751,0.528835 -0.172224,0.180482 -0.337069,0.367697 -0.518476,0.539641 -0.223496,0.24485 0.08372,-0.07362 -0.167541,0.129975 -0.136232,0.110393 -0.227055,0.279993 -0.348391,0.404984 -0.156501,0.207167 -0.320329,0.40745 -0.496675,0.598125 -0.147895,0.177591 -0.312463,0.336366 -0.469272,0.505102 -0.167728,0.171147 -0.32804,0.349591 -0.498966,0.517658 -0.260452,0.128591 -0.441459,0.389745 -0.634617,0.600484 -0.191118,0.203791 -0.383761,0.408474 -0.53953,0.641439 -0.197569,0.262693 -0.411028,0.515022 -0.684197,0.702809 z" />
    <path
       style="fill:#000000;stroke-width:0.100001;stroke-dasharray:none"
       id="path8"
       d="m 20.455854,22.293319 c 0.102176,0.317183 0.225042,0.628223 0.33112,0.944623 0.08661,0.214059 0.176756,0.42753 0.215228,0.656217 0.06588,0.183624 0.104873,0.373444 0.164695,0.558839 0.05243,0.216239 0.08229,0.433881 0.133188,0.650697 0.0385,0.260609 0.116974,0.511917 0.162916,0.771155 0.02239,0.278404 0.08979,0.549024 0.130891,0.824914 0.06771,0.372361 0.15884,0.744526 0.200455,1.120949 0.03669,0.240942 0.08471,0.47955 0.12469,0.71969 0.01144,0.238758 0.04414,0.4739 0.07136,0.710783 0.0027,0.24313 0.06772,0.47737 0.09553,0.717065 0.06148,0.214624 0.02898,0.438455 0.05798,0.65592 0.03608,0.117558 0.07062,0.220505 0.0814,0.341031 0.03831,0.09282 -0.01246,0.214343 0.02415,0.308919 0.0047,0.01225 0.02629,-2.64e-4 0.03944,-5.29e-4 0.006,0.04338 0.01201,0.08676 0.01801,0.130136 0.0261,0.172904 0.09107,0.217296 0.100493,0.400421 0.04297,0.05198 -0.01814,0.328876 0.09149,0.26827 0.06174,0.04897 0.0294,0.123895 0.05473,0.185919 0.0058,0.01429 0.02913,0.01429 0.03735,0.02734 0.0074,0.01172 0.02438,0.09123 0.02827,0.108379 -0.0022,0.01479 -0.016,0.03263 -0.0067,0.04438 0.01165,0.01476 0.04298,7.94e-4 0.05419,0.01582 0.0113,0.01521 0.04951,0.180588 0.05739,0.215955 0.01712,-0.0263 0.07914,-0.06045 0.08102,0.0047 -0.0056,0.02682 -0.02466,0.007 -0.03145,-0.003 0.03267,0.0063 0.06533,0.01267 0.098,0.01902 0,0 2.682037,1.419493 2.682037,1.419493 v 0 c 0.03279,0.0056 0.06557,0.01119 0.09836,0.01678 -1.21e-4,-0.03792 -0.03559,-0.0586 -0.03474,-0.09876 -0.01449,-0.100021 0.0078,-0.184551 -0.01786,-0.276518 -0.02227,-0.02048 -0.133602,-0.111067 -0.134067,-0.13751 -0.0034,-0.190295 0.08363,0.01828 -0.01039,-0.159124 -0.01842,-0.04868 -0.04871,-0.09282 -0.06297,-0.142879 -0.0097,-0.03403 -0.003,-0.07186 -0.01526,-0.105058 -0.006,-0.01627 -0.03068,-0.0204 -0.03705,-0.03654 -0.01027,-0.02601 -0.0079,-0.14436 -0.008,-0.166162 -0.0027,-0.237639 -0.05247,-0.112104 -0.0817,-0.18635 -0.01294,-0.03287 0.0055,-0.179785 0.0063,-0.18953 -0.02394,-0.232824 -9.26e-4,-0.471231 -0.05973,-0.698692 -0.05881,-0.293189 0.01453,-0.599219 -0.0171,-0.896406 -0.02539,-0.281246 -0.04721,-0.563243 -0.117659,-0.837811 -0.05827,-0.281807 -0.06195,-0.573359 -0.107966,-0.857779 -0.07278,-0.260484 -0.09742,-0.526572 -0.143835,-0.792414 -0.0576,-0.29116 -0.10079,-0.581595 -0.11723,-0.878192 -0.04485,-0.311141 -0.173567,-0.601796 -0.232047,-0.910384 -0.09802,-0.391398 -0.177585,-0.784268 -0.213616,-1.186854 -0.03398,-0.28285 -0.09927,-0.559758 -0.129823,-0.843007 -0.05319,-0.259663 -0.126058,-0.514859 -0.164626,-0.777527 -0.04414,-0.225959 -0.0677,-0.45607 -0.141213,-0.675528 -0.05693,-0.190139 -0.09766,-0.384189 -0.167596,-0.569658 -0.05646,-0.238681 -0.175566,-0.450924 -0.270393,-0.67572 -0.121391,-0.316474 -0.248698,-0.629808 -0.312292,-0.964618 z" />
    <path
       style="fill:#000000;stroke-width:0.100001;stroke-dasharray:none"
       id="path9"
       d="m 25.414871,19.973182 c 0.03827,0.31581 0.0808,0.629557 0.128526,0.944843 0.05455,0.384891 0.156671,0.760186 0.218352,1.143384 0.05401,0.369679 0.111373,0.73822 0.189219,1.103739 0.05014,0.34003 0.143926,0.671116 0.224875,1.004386 0.07146,0.275734 0.05443,0.563873 0.106582,0.841577 0.03695,0.299803 0.102332,0.592302 0.174377,0.885329 0.135388,0.406135 0.23163,0.823779 0.339166,1.237908 0.103873,0.4553 0.237817,0.903288 0.332956,1.360562 0.05066,0.299063 0.116325,0.593274 0.156912,0.894205 0.06019,0.220245 0.07328,0.445563 0.09371,0.671164 -0.0086,0.254417 0.05687,0.501783 0.08388,0.753628 0.02101,0.211512 0.02936,0.418029 0.07783,0.625326 0.03017,0.107136 0.05713,0.213584 0.06994,0.324164 0.03617,0.161241 -0.01881,0.296163 -0.05882,0.447011 -0.06931,0.06572 -0.0095,0.318928 -0.07695,0.348356 -0.04093,0.03661 -0.02617,0.09563 -0.06791,0.168884 -0.07687,0.09353 -0.0379,0.237849 -0.09717,0.331009 -0.04494,0.116108 -0.08992,0.219884 -0.170075,0.317378 -0.115753,0.150829 -0.228999,0.304487 -0.357171,0.447379 -0.08854,0.195824 -0.265813,0.310384 -0.364851,0.495014 -0.103592,0.05899 -0.129233,0.187094 -0.205277,0.266054 -0.0045,0.0046 -0.08405,0.03821 -0.08861,0.04017 -0.04353,0.04024 -0.05778,0.16806 -0.122688,0.186424 -0.08249,0.02334 0.01028,-0.06112 -0.06479,0.02281 -0.08257,0.0691 -0.183,0.168596 -0.272603,0.06181 -0.261672,0.01442 -0.04143,0.0011 0.660079,0.04976 0,0 1.818539,0.123966 1.818539,0.123966 v 0 c 0.747058,0.03427 0.537846,0.179074 0.763182,0.01357 0.05397,-0.110644 0.123961,-0.206485 0.184945,-0.314449 0.05397,-0.07965 0.04612,-0.198965 0.142572,-0.248305 0.07734,-0.128884 0.151927,-0.254882 0.241976,-0.376054 0.125971,-0.146485 0.225574,-0.308676 0.337848,-0.465517 0.114182,-0.157742 0.219632,-0.323023 0.324135,-0.486823 0.05345,-0.127609 0.110848,-0.253861 0.150645,-0.386548 0.0196,-0.111925 0.05453,-0.217785 0.09272,-0.324548 0.032,-0.163534 0.03541,-0.324955 0.01296,-0.490712 -0.01177,-0.13728 0.01635,-0.260048 0.05225,-0.392457 0.04766,-0.180669 0.05046,-0.361618 0.03703,-0.547323 -0.0089,-0.129982 -0.03816,-0.251509 -0.09546,-0.369143 -0.05796,-0.19252 -0.04838,-0.396722 -0.08679,-0.593557 -0.05812,-0.268737 -0.09718,-0.538245 -0.110065,-0.813372 -0.03539,-0.305145 -0.118417,-0.601933 -0.184836,-0.901324 -0.05669,-0.338349 -0.182458,-0.657711 -0.254774,-0.993064 -0.115761,-0.453163 -0.241664,-0.903579 -0.361701,-1.355625 -0.11147,-0.43797 -0.207027,-0.87974 -0.351467,-1.309049 -0.0718,-0.284394 -0.113703,-0.574674 -0.175145,-0.86133 -0.04208,-0.284172 -0.07241,-0.570057 -0.169546,-0.842776 -0.09623,-0.320631 -0.187858,-0.643474 -0.262912,-0.969717 -0.07501,-0.359727 -0.174926,-0.71294 -0.243855,-1.07407 -0.08411,-0.373227 -0.15746,-0.749134 -0.254684,-1.119256 -0.05584,-0.31162 -0.127732,-0.620321 -0.174619,-0.933611 z" />
    <path
       style="fill:#000000;stroke-width:0.100001;stroke-dasharray:none"
       id="path10"
       d="m 31.467724,21.713688 c -0.102556,0.352178 -0.19148,0.708266 -0.292348,1.060971 -0.09319,0.369447 -0.272091,0.705556 -0.430946,1.048649 -0.09617,0.248925 -0.225071,0.482833 -0.324447,0.730214 -0.01188,0.03913 -0.01953,0.07981 -0.03561,0.117405 -0.175615,0.410434 0.07348,-0.25229 -0.09522,0.182208 -0.03645,0.09388 -0.04443,0.173293 -0.112115,0.249407 -0.04677,0.135154 -0.17428,0.216856 -0.217949,0.349755 -0.04657,0.09506 -0.04527,0.197794 -0.0542,0.30112 -0.01376,-0.01558 -0.02098,-0.04214 -0.04125,-0.04674 -0.01222,-0.0028 -0.01101,0.02255 -0.0172,0.03345 -0.0123,0.02162 -0.05478,0.06351 -0.05978,0.08657 -0.0044,0.02041 7.94e-4,0.04176 0.0011,0.06264 -0.02373,0.101767 -0.01783,0.187155 0.01714,0.284903 0.03261,0.157867 0.09894,0.301579 0.163847,0.448072 0.191395,0.32199 0.413514,0.624537 0.607651,0.944479 0.181082,0.271332 0.286019,0.580486 0.398275,0.883759 0.07219,0.221034 0.162619,0.434448 0.268704,0.641719 0.102156,0.13887 0.154068,0.308083 0.227742,0.463346 0.07082,0.151012 0.166934,0.286689 0.239145,0.436825 0.05834,0.09722 0.12662,0.187802 0.189369,0.28213 0.05778,0.08686 0.07392,0.12028 0.0818,0.111519 0.01622,-0.01804 0.0047,-0.0483 0.0071,-0.07245 0.06614,-0.101087 0.08711,0.149253 0.129625,0.08058 0.03046,0.04057 0.01021,-0.06342 0.03287,0.04477 -0.0019,0.09826 0.02585,0.192131 0.08057,0.272967 0.01297,-0.02323 0.01072,0.03985 0.01053,0.02944 -0.02275,-1.250624 2.045872,1.114051 2.994843,0.516732 0.144456,-0.105096 0.228335,-0.295666 0.323291,-0.447048 0.175936,-0.310472 0.308639,-0.642082 0.461386,-0.964158 0.08573,-0.145197 0.189845,-0.281849 0.262154,-0.434869 0.126763,-0.268258 0.0016,-0.07724 0.130194,-0.257611 0.138447,-0.340121 0.232705,-0.691064 0.384821,-1.026296 0.17067,-0.168779 0.317909,-0.361135 0.484547,-0.535491 0.07746,-0.09654 0.188755,-0.166982 0.263757,-0.265366 0.124673,-0.163545 -0.01744,-0.0249 0.118442,-0.146802 0.09714,-0.140783 0.206799,-0.259277 0.317229,-0.391771 0.118431,-0.136325 -0.02207,0.03721 0.08071,-0.134539 0.118081,-0.197333 -0.02907,0.08655 0.08573,-0.0809 0.01818,-0.02651 0.04221,-0.110265 0.0521,-0.141716 0.141784,-0.05542 0.131216,-0.05345 0.157963,-0.200583 0.03381,-0.08192 -0.02066,-0.212296 0.04211,-0.115534 0.113832,0.01478 0.08071,-0.148625 0.07742,-0.222238 0.01278,-0.06684 -0.0081,-0.03447 0.0385,-0.03027 0.0186,0.0017 0.05892,-0.04682 0.0718,-0.05853 0.098,-0.08382 0.07496,0.03056 0.0016,-0.232282 -0.02014,-0.07211 -0.0054,-0.03795 -0.03422,-0.09232 -0.03524,-0.05416 -0.0021,-0.04119 -0.0668,-0.15045 -0.05069,-0.164794 -0.158362,-0.304004 -0.253618,-0.445335 -0.169829,-0.226956 -0.362518,-0.434449 -0.546108,-0.649914 -0.152624,-0.173397 -0.307104,-0.344624 -0.458124,-0.519283 -0.09973,-0.150808 -0.207911,-0.296469 -0.309146,-0.446719 -0.09538,-0.172285 -0.205763,-0.335015 -0.282606,-0.51699 -0.0896,-0.167372 -0.202728,-0.326144 -0.33356,-0.464116 -0.08527,-0.07966 -0.162603,-0.166091 -0.249898,-0.245116 -0.08368,-0.0778 -0.157065,-0.156925 -0.258944,-0.215915 -0.1108,-0.06814 -0.217632,-0.124606 -0.306363,-0.222958 -0.06242,-0.06558 -0.132692,-0.12397 -0.189549,-0.194581 -0.06941,-0.08063 -0.154941,-0.134911 -0.23398,-0.200596 -0.08082,-0.105816 -0.211597,-0.143313 -0.300889,-0.241062 -0.07943,-0.06068 -0.139759,-0.145521 -0.223796,-0.199073 -0.05961,-0.04216 -0.103694,-0.03884 -0.145927,-0.100215 -0.542391,-0.560055 3.043937,-1.667765 -1.978625,1.019921 0,0 1.157078,-0.35539 1.157078,-0.35539 v 0 c -0.630421,0.328018 -1.75531,1.652795 -1.904596,0.957999 -0.03435,-0.08238 0.0094,-0.02983 0.04342,-0.0831 0.03148,-0.01542 0.01982,-0.0028 0.02913,-0.04258 0.01159,-0.0081 0.104374,0.08424 0.114293,0.08927 0.0491,0.04057 0.210991,0.262549 0.272044,0.215953 0.134949,0.06438 -0.09207,-0.05084 0.08607,0.07574 0.0056,0.004 0.0105,-0.01387 0.01707,-0.0117 0.03352,0.01107 0.05572,0.06601 0.08275,0.08624 0.06746,0.05916 0.123027,0.13021 0.183503,0.196272 0.0939,0.09263 0.16695,0.228615 0.285574,0.284002 0.08031,0.08422 0.180971,0.120735 0.234867,0.230715 0.1039,0.05996 0.174899,0.137577 0.248763,0.232334 0.13039,0.06982 0.218553,0.196765 0.294163,0.32064 0.09624,0.187363 0.20023,0.370225 0.297767,0.556467 0.102323,0.166856 0.231845,0.316526 0.326503,0.489153 0.152239,0.179384 0.320468,0.34094 0.491493,0.502117 0.174475,0.211808 0.372925,0.399632 0.531789,0.623508 0.08268,0.115564 0.147514,0.236889 0.241082,0.343502 0.01114,0.0159 0.02231,0.03181 0.03344,0.04771 0.0013,-0.01063 -0.005,-0.03769 0.004,-0.0319 0.04066,0.02614 0.02043,0.136128 0.08998,0.143587 0.09524,0.05673 0.01429,-0.243734 -0.01453,-0.108647 -0.04296,0.06655 -0.05774,0.126914 -0.06801,0.204289 -0.0678,-0.09436 0.0127,-0.0021 -0.03603,-0.01876 -0.01117,-0.0038 -0.01437,-0.0241 -0.02617,-0.02379 -0.02048,5.29e-4 -0.04438,0.101841 -0.04911,0.109453 -7.94e-4,0.07392 0.007,0.09629 -0.03484,0.143646 -0.08096,0.03231 0.07999,-0.02614 -0.04654,-0.0122 -0.04433,0.0049 -0.09019,0.139018 -0.112573,0.163826 -0.02167,0.0081 -0.04984,-0.0055 -0.06895,0.0075 -0.06366,0.04339 -0.08519,0.160989 -0.154827,0.203696 -0.103423,0.127398 -0.21066,0.248535 -0.313615,0.375819 -0.111557,0.146109 -0.256862,0.263463 -0.367924,0.411025 -0.16164,0.18876 -0.331959,0.372297 -0.475499,0.574866 -0.07275,0.05691 -0.132094,0.123937 -0.22612,0.139699 -0.02912,0.0049 -0.09427,0.0031 -0.121732,0.01744 -0.02114,0.01103 -0.03562,0.03169 -0.05343,0.04753 -0.106533,0.178349 -0.279934,0.311801 -0.36205,0.511713 -0.07277,0.04383 -0.03745,0.01363 -0.09737,0.0998 -0.0076,0.0059 -0.01979,-0.02016 -0.02585,-0.01273 -0.07757,0.09527 -0.104497,0.237812 -0.191625,0.329236 -0.08328,0.117296 -0.136235,0.250076 -0.279743,0.289099 -0.981883,0.325702 -0.295296,0.08927 2.842063,0.747723 0.0553,0.01162 0.01815,-0.125355 -0.01831,-0.16853 -0.0066,-0.0078 -0.02151,0.01439 -0.0293,0.0084 -0.09768,0.0073 -0.0827,0.04843 -0.09893,0.0524 -0.01146,0.0028 1.35e-4,-0.0236 2.04e-4,-0.03539 0.0042,-0.06933 0.0032,-0.186739 -0.03356,-0.23891 -0.02363,-0.07359 -0.08244,-0.09555 -0.108718,-0.161087 -0.01659,-0.04134 -0.02093,-0.08667 -0.03447,-0.129107 -0.01069,-0.0335 -0.0254,-0.06558 -0.03812,-0.09837 -0.07701,-0.255412 -0.194248,-0.466712 -0.347858,-0.682965 -0.08279,-0.107403 -0.154507,-0.226117 -0.213025,-0.346162 -0.108229,-0.176351 -0.182471,-0.37102 -0.289141,-0.548151 -0.187771,-0.287779 -0.288194,-0.616991 -0.415031,-0.933954 -0.143974,-0.338856 -0.270933,-0.684994 -0.49188,-0.984407 -0.215269,-0.345726 -0.459354,-0.671781 -0.671093,-1.019797 -0.07785,-0.119268 -0.151522,-0.240165 -0.199116,-0.37508 0.0071,-0.03721 0.01363,-0.08093 0.03167,-0.117059 0.07078,-0.0063 0.105596,-0.146009 0.08831,-0.198643 0.0057,-0.0699 0.03107,-0.129303 0.06937,-0.187785 0.09534,-0.0978 0.139235,-0.233129 0.205278,-0.350486 0.059,-0.19287 0.146853,-0.373273 0.216764,-0.562286 0.105308,-0.233769 0.197534,-0.473028 0.283156,-0.714671 0.134261,-0.339258 0.251954,-0.686022 0.314618,-1.04649 0.0845,-0.341442 0.158077,-0.686345 0.268311,-1.020808 z" />
    <path
       style="fill:#000000;stroke-width:0.084393;stroke-dasharray:none"
       id="path11"
       d="m 26.417124,14.303414 c -0.282138,0.01673 -0.560074,0.07243 -0.838133,0.124928 -0.06054,0.01143 -0.121029,0.02312 -0.181519,0.03484 -0.0483,0.0094 -0.19373,0.02463 -0.144848,0.02839 0.188172,0.01447 0.377194,0.0026 0.56579,0.004 0.402762,0.642925 0.982141,1.182324 1.208288,1.928774 0.09481,0.312936 -0.22499,0.610702 -0.348058,0.910627 -0.01258,0.03066 -0.08457,0.0916 -0.05747,0.07766 0.05387,-0.02772 0.09461,-0.08073 0.141916,-0.121103 1.79017,-1.527653 -0.108345,-4.408601 -1.898514,-2.880948 v 0 c -0.371631,0.317133 -1.104388,0.915397 -0.97309,1.525342 0.17204,0.799212 0.794818,1.374846 1.192228,2.06227 0.235418,0.01404 0.470546,0.03768 0.706256,0.04213 0.101648,0.0019 0.200366,-0.03932 0.30065,-0.05831 0.122576,-0.0232 0.248093,-0.03046 0.368054,-0.06733 0.01367,-0.0042 -0.0277,-0.0069 -0.04155,-0.01023 2.237607,0 2.237607,-3.601014 0,-3.601014 z" />
  </g>
</svg>
